<?xml version="1.0" encoding="UTF-8" standalone="no"?>
<!-- Creator: CorelDRAW X6 -->

<svg
   xmlns:dc="http://purl.org/dc/elements/1.1/"
   xmlns:cc="http://creativecommons.org/ns#"
   xmlns:rdf="http://www.w3.org/1999/02/22-rdf-syntax-ns#"
   xmlns:svg="http://www.w3.org/2000/svg"
   xmlns="http://www.w3.org/2000/svg"
   xmlns:sodipodi="http://sodipodi.sourceforge.net/DTD/sodipodi-0.dtd"
   xmlns:inkscape="http://www.inkscape.org/namespaces/inkscape"
   xml:space="preserve"
   width="364.98834"
   height="364.98779"
   version="1.1"
   style="fill-rule:evenodd"
   viewBox="0 0 10300.782 10300.767"
   id="svg2"
   inkscape:version="0.48.4 r9939"
   sodipodi:docname="LOGOFFMJ_FREE_DRAGONS.svg"><metadata
   id="metadata53"><rdf:RDF><cc:Work
       rdf:about=""><dc:format>image/svg+xml</dc:format><dc:type
         rdf:resource="http://purl.org/dc/dcmitype/StillImage" /></cc:Work></rdf:RDF></metadata><sodipodi:namedview
   pagecolor="#ffffff"
   bordercolor="#666666"
   borderopacity="1"
   objecttolerance="10"
   gridtolerance="10"
   guidetolerance="10"
   inkscape:pageopacity="0"
   inkscape:pageshadow="2"
   inkscape:window-width="1280"
   inkscape:window-height="1005"
   id="namedview51"
   showgrid="false"
   fit-margin-top="0"
   fit-margin-left="0"
   fit-margin-right="0"
   fit-margin-bottom="0"
   inkscape:zoom="2.5371828"
   inkscape:cx="186.25637"
   inkscape:cy="185.36996"
   inkscape:window-x="-4"
   inkscape:window-y="-4"
   inkscape:window-maximized="1"
   inkscape:current-layer="svg2" />
 <defs
   id="defs4">
  <style
   type="text/css"
   id="style6">
   
    .fil0 {fill:none}
    .fil1 {fill:#FEFEFE}
    .fil5 {fill:blue}
    .fil3 {fill:#0E1B26}
    .fil2 {fill:red;fill-rule:nonzero}
    .fil4 {fill:#0E1B26;fill-rule:nonzero}
   
  </style>
 
  
  
  
 </defs>
 <g
   id="_188847936"
   transform="translate(-4849.6091,-9549.6165)">
   <path
   style="fill:#ff0000;fill-rule:nonzero"
   inkscape:connector-curvature="0"
   d="m 13260,13141 c -361,-317 -919,125 -1365,1201 -117,282 -196,599 -281,925 135,-233 280,-479 432,-720 418,-668 967,-1088 1101,-1243 280,-220 1031,1131 782,910 -275,-10 -502,133 -673,396 -164,252 -242,593 -395,956 340,-360 562,-712 667,-903 48,-24 116,-32 174,-26 316,-121 723,27 501,162 -144,209 -402,812 -1033,1503 -713,780 -1367,1567 -1612,1970 -185,182 -622,482 -512,280 105,-193 285,-489 520,-835 240,-353 550,-758 881,-1171 322,-403 555,-772 721,-1074 -191,216 -382,405 -548,554 -271,431 -651,862 -960,1303 -367,525 -851,1094 -1124,1556 223,-407 59,-268 -21,-269 -27,0 194,-429 140,-386 -111,88 -264,246 -434,493 245,-413 711,-937 1061,-1435 369,-525 840,-1077 1046,-1636 178,-481 254,-950 377,-1351 29,-95 65,-190 103,-283 -156,99 -319,242 -468,425 -285,352 -617,821 -860,1282 -58,168 -131,339 -230,512 -31,55 -65,110 -102,165 -240,359 -463,712 -662,1048 -196,331 -370,647 -526,931 -108,-293 -507,446 -550,380 273,-493 324,-1049 680,-1636 367,-605 722,-1239 841,-1871 117,-622 238,-1225 487,-1812 234,-552 692,-1033 894,-1405 353,-122 856,1017 948,1103 z"
   class="fil2"
   id="ROUGE" />
   <path
   style="fill:#0e1b26"
   inkscape:connector-curvature="0"
   d="m 13587,11262 c -31,2 -72,10 -117,19 17,-15 31,-28 33,-37 8,-42 -5,-115 -53,-123 -9,-1 -35,31 -45,83 -45,-14 -92,-56 -118,-104 -32,-60 -65,76 -73,124 -1,7 10,14 29,21 -29,8 -60,14 -87,23 -1,0 -1,0 -2,1 -15,5 -28,11 -39,19 -3,-7 1,-7 8,-4 -152,76 -87,92 -61,116 19,17 68,16 129,6 -79,62 -140,131 -100,191 61,-134 141,-84 295,-232 45,-10 88,-20 126,-27 -26,18 -36,19 -38,20 -63,39 -190,143 -254,205 -65,63 -53,90 -52,115 2,35 150,117 119,117 -33,0 -85,-27 -153,-69 38,48 247,142 267,88 56,-153 -56,-55 -130,-141 -31,-36 32,-96 49,-100 0,-1 17,-16 38,-34 13,4 40,4 85,-4 46,-8 109,0 146,37 46,45 103,-130 94,-157 l 0,0 c 8,-33 12,-67 5,-95 l 1,-1 c 22,-25 25,-32 25,-34 0,-43 21,-92 -67,-100 -84,-8 -53,38 -57,79 z m 67,151 c -50,6 -159,29 -193,34 46,-38 136,-89 171,-104 19,15 39,37 39,50 0,5 -7,12 -17,20 z m -272,-151 1,0 c -15,14 -38,31 -65,50 -73,14 -133,22 -147,7 -8,-9 -12,-17 -14,-24 0,-1 0,-2 -1,-3 l 0,0 c 106,-55 126,-19 226,-30 z"
   class="fil3"
   id="NORD" />
   <path
   style="fill:#0e1b26"
   inkscape:connector-curvature="0"
   d="m 6577,11190 c -18,-10 -43,-17 -59,-16 l 0,0 0,0 c -4,0 -8,2 -10,4 -13,5 -25,9 -37,13 23,-34 45,-64 46,-63 24,7 43,32 60,62 z m -71,3 c 2,14 -1,30 -7,47 l -35,-32 c 17,-4 31,-9 42,-15 z m -145,26 c 5,-1 10,-2 15,-2 l -8,-6 c -2,3 -5,6 -7,9 z m 23,5 c -11,2 -22,5 -34,7 l -3,4 c -4,1 -10,1 -18,1 l 0,0 0,0 c -26,1 -66,-2 -90,-24 24,-7 48,-28 67,-55 -27,-22 -54,-44 -79,-64 -14,-11 -8,12 -22,2 -53,-62 39,-136 126,-62 0,0 2,28 12,52 5,-18 6,-35 4,-49 -9,-44 130,3 112,34 -23,40 -39,66 -51,86 l 23,21 c 32,-48 62,-101 79,-114 15,-28 98,-17 94,1 -13,66 92,184 81,213 l 0,1 c 4,1 8,3 11,6 -28,21 -54,42 -78,64 l 17,15 c 75,-19 441,-91 531,-83 -42,15 -148,89 -138,139 -121,7 -238,-37 -349,-15 59,54 112,105 151,144 l 7,-1 c 9,-2 50,37 55,72 2,4 2,7 1,8 l 0,0 c 0,5 -1,10 -3,15 -27,63 -137,-54 -193,-17 0,0 -8,14 -8,14 -28,-7 -33,-31 -15,-49 6,-6 41,-16 80,-25 -17,-19 -69,-70 -138,-135 -13,39 39,171 39,235 -1,69 23,135 -19,159 -11,-123 -26,-274 -86,-389 -9,16 -18,33 -25,50 -7,18 0,36 -15,49 -12,10 -39,-2 -44,-15 -33,-86 -89,-149 -181,-201 22,-8 72,-39 88,-27 50,38 76,105 122,164 14,-36 32,-63 51,-89 -10,-9 -20,-18 -31,-28 l -8,10 c -14,2 -62,5 -87,-18 16,-5 33,-18 47,-35 -13,-12 -26,-23 -39,-35 -2,3 -3,6 -4,9 -18,21 -25,-1 -57,11 -7,3 -19,-11 -22,-18 15,-3 30,-16 46,-34 l -6,-5 z m -26,-2 c 2,-1 3,-2 2,-3 l -2,3 z m 225,95 c 8,-11 16,-22 24,-33 5,-1 11,-3 17,-4 -1,-2 -3,-4 -6,-6 -8,-17 -17,-36 -26,-54 -19,32 -31,53 -41,69 l 32,29 z"
   class="fil3"
   id="EST" />
   <path
   style="fill:#0e1b26"
   inkscape:connector-curvature="0"
   d="m 13344,17842 c 28,-35 -134,-118 -131,-62 3,74 -90,188 -164,199 18,23 51,35 79,41 -25,37 -44,72 -47,92 54,-75 68,-25 97,-86 29,-26 45,-41 67,-64 28,3 56,41 86,107 -19,22 -38,43 -59,62 -5,-3 -11,-6 -17,-9 -45,-9 -61,-45 -109,22 4,53 34,31 54,37 l 7,2 c -27,18 -54,34 -83,47 -6,9 9,25 29,33 -23,-1 -55,-6 -69,-76 -18,52 -33,111 12,137 63,35 131,61 184,87 l 0,0 c 32,17 73,45 90,69 4,8 7,16 8,25 27,-51 102,-179 182,-235 26,16 52,19 85,17 8,0 21,-14 22,-24 4,-101 -57,-293 -74,-315 -70,-90 -134,-105 -147,-70 -18,47 -41,91 -69,131 -11,-33 -21,-65 -35,-86 -10,-14 -22,-26 -34,-34 11,-14 24,-29 38,-47 z m 22,302 c 37,52 82,26 123,99 -23,26 -47,52 -71,74 -47,-41 -53,-91 -87,-136 12,-12 24,-24 35,-37 z m 146,72 c -10,-51 -48,-82 -63,-91 -15,-9 -28,-22 -38,-36 23,-28 46,-57 74,-83 1,-2 3,-3 4,-5 44,30 85,137 84,186 -16,-1 -31,1 -44,6 -6,7 -12,15 -18,22 z m -155,151 c 7,-5 13,-10 20,-15 -20,-6 -39,-21 -52,-46 -13,-47 -23,-72 -39,-87 -28,20 -61,37 -101,48 -5,1 -10,2 -15,1 l 0,0 c 49,65 140,65 186,99 z"
   class="fil3"
   id="OUEST" />
   <path
   style="fill:#0e1b26"
   inkscape:connector-curvature="0"
   d="m 6704,17977 16,-4 48,-12 m 46,-11 1,0 m 116,-4 c 18,12 129,-96 27,-115 -14,-3 -35,-5 -61,-8 39,-34 67,-58 69,-57 46,-25 -37,-202 -106,-175 0,57 -9,139 -70,218 -79,-13 -164,-33 -212,-73 -33,4 69,117 80,140 16,9 31,14 45,17 -26,19 -56,37 -91,54 -5,-3 -9,-6 -14,-9 2,-16 6,-33 13,-52 -17,-13 -50,-12 -70,1 l 1,7 c -15,-15 -27,-29 -33,-42 -7,-17 -29,-24 -48,-6 -89,87 -52,282 -150,337 55,38 106,-23 112,-30 31,-62 -2,-153 52,-215 1,-1 3,-2 7,-4 l 1,1 c 23,9 45,19 66,29 l 4,38 c -22,-8 -41,-11 -52,-3 -10,3 -12,7 -8,12 -5,18 -3,59 20,66 12,-7 34,-2 58,8 -7,16 -14,29 -20,41 -42,-15 -75,-29 -90,-43 -6,13 11,90 25,102 9,2 17,3 25,5 l -9,13 c -2,28 -12,69 21,92 -1,-29 13,-60 33,-90 36,14 57,32 70,45 69,8 125,-126 81,-171 -16,-7 -32,-15 -48,-24 17,-2 34,-5 51,-8 50,29 99,60 149,93 14,67 -162,237 -211,228 -42,-8 -34,-35 -48,-99 -83,62 -31,103 -31,162 0,38 44,31 56,27 115,-32 368,-260 366,-294 -2,-32 -2,-107 -35,-120 -27,-18 -75,30 -108,8 -12,-1 -35,-8 -64,-19 25,-5 48,-11 65,-16 7,-20 0,-39 -34,-70 l 0,0 0,0 0,0 0,0 c -13,-10 -33,-16 -53,-15 16,-13 33,-26 49,-39 31,3 68,15 120,50 z m -149,28 c -21,10 -50,18 -82,23 -6,-3 -11,-6 -17,-8 7,-3 14,-7 20,-12 5,-3 9,-7 14,-10 1,3 1,5 2,6 8,-12 34,-15 48,-12 l 2,1 c 7,2 11,6 7,12 -1,1 0,1 4,0 z m -186,13 c 12,6 24,12 35,18 -11,1 -23,1 -34,1 0,-6 -1,-13 -1,-19 z m 33,130 c -8,9 -17,18 -26,28 18,7 37,14 56,21 13,12 21,7 28,-5 -7,-9 -30,-27 -58,-44 z"
   class="fil3"
   id="SUD" />
   <path
   style="fill:#0e1b26;fill-rule:nonzero"
   inkscape:connector-curvature="0"
   d="m 14278,12447 c -49,30 -101,42 -157,35 -56,-7 -104,-31 -145,-72 38,11 77,14 117,9 40,-5 77,-18 110,-38 50,-31 79,-75 88,-131 8,-52 -4,-104 -35,-155 -39,-62 -99,-100 -179,-114 l 44,-57 c 75,35 139,93 190,175 37,60 56,121 55,185 -1,74 -30,128 -86,164 z m -262,-52 -85,-14 c -13,-11 -25,-25 -34,-40 -16,-26 -27,-58 -32,-94 -4,-34 -3,-67 4,-99 67,35 132,33 193,-6 37,-23 65,-51 86,-86 29,7 59,30 89,68 -14,28 -34,50 -60,66 -29,18 -64,28 -106,30 -38,2 -75,-2 -111,-13 -19,57 -17,104 7,142 13,22 30,37 50,45 z m 634,505 -99,-21 c 25,-22 37,-52 38,-90 1,-32 -7,-65 -22,-100 -4,-9 -8,-17 -13,-25 18,9 35,18 53,28 14,9 26,24 34,44 11,24 17,51 18,82 1,29 -2,57 -9,82 z m -181,-74 -93,-15 c 17,-17 16,-46 -3,-87 -8,-18 -17,-34 -27,-48 l 39,-11 c 32,24 55,52 69,83 13,28 17,54 14,77 z m -125,225 c -68,-28 -117,-77 -148,-147 -32,-71 -41,-137 -28,-197 15,-68 56,-117 125,-147 52,-23 108,-27 167,-10 63,18 106,53 130,104 -39,-20 -81,-29 -125,-29 -43,0 -84,9 -125,27 -53,23 -88,57 -106,100 -18,43 -16,91 7,142 14,30 32,56 55,78 26,24 54,39 84,44 l -37,35 z m 390,852 c -87,20 -167,16 -239,-12 l 24,-43 c 47,11 98,11 155,-3 64,-15 119,-45 165,-92 l -44,-53 37,-41 c 53,30 105,71 156,123 -74,58 -158,98 -254,120 z m 34,-217 -110,-38 c 39,-23 75,-50 108,-83 38,-37 63,-74 76,-111 l 48,7 c -5,41 -18,81 -41,122 -22,41 -49,75 -81,103 z m -299,-131 -75,-90 c 66,-37 140,-66 222,-85 117,-27 213,-20 287,22 l -10,34 c -71,-12 -146,-9 -225,9 -83,19 -149,56 -200,110 z m 136,1032 -46,-97 c 89,-7 172,-22 249,-45 115,-34 178,-77 189,-130 l 16,47 c -32,62 -91,114 -177,157 -73,36 -150,59 -231,68 z m 199,-176 -89,-17 c 26,-21 37,-60 32,-117 -3,-37 -11,-73 -23,-107 l 29,0 c 36,34 56,79 61,136 3,38 0,74 -9,106 z m 231,-82 c -20,-76 -77,-130 -170,-161 -73,-25 -158,-33 -253,-25 -15,1 -30,3 -43,5 l -43,-103 45,-6 c 74,-9 145,-2 214,23 69,24 130,63 185,117 9,9 21,23 37,41 19,22 29,36 29,41 0,0 0,23 0,68 z m -127,816 c -13,0 -26,0 -39,0 -75,-1 -172,-16 -291,-43 l 6,-40 c 36,13 77,20 125,21 106,2 216,-19 330,-64 l 38,102 c -67,15 -123,22 -170,23 z m -34,-107 -90,-30 c 14,-19 25,-48 34,-85 8,-33 12,-65 13,-97 0,-9 0,-17 -1,-25 l 36,-2 c 20,44 30,91 29,140 -1,29 -8,62 -22,100 z m -262,-218 -46,-102 c 26,-21 73,-31 142,-30 104,2 227,22 368,61 l -18,33 c -53,-15 -107,-22 -162,-23 -48,-1 -97,4 -146,13 -54,11 -100,27 -138,48 z m 158,425 -12,165 -47,-11 c 6,-61 4,-115 -6,-162 l 65,7 z m 19,639 c -53,-11 -103,-26 -150,-45 l -36,-60 c 19,7 39,13 59,17 41,9 86,12 134,10 48,-2 92,-9 131,-22 l 24,106 c -40,10 -94,7 -162,-7 z m -193,-74 c -37,-13 -65,-37 -84,-71 -19,-34 -24,-71 -16,-109 9,-43 33,-79 72,-107 39,-28 79,-36 121,-26 l 8,2 28,98 c -36,-1 -71,4 -106,15 -44,15 -70,36 -76,64 -8,40 9,84 53,134 z m -65,710 c -51,-15 -94,-48 -130,-97 -34,-47 -55,-97 -61,-152 47,73 106,121 179,143 51,16 103,11 156,-13 53,-24 87,-61 102,-111 5,-17 7,-34 6,-52 l 33,66 c -3,15 -6,30 -11,44 -19,62 -54,110 -104,144 -54,37 -111,46 -171,27 z m -140,-242 -46,-53 c 3,-33 9,-63 17,-91 20,-66 54,-115 102,-147 52,-34 110,-42 175,-22 53,16 99,54 136,112 38,58 52,115 43,169 -17,-43 -40,-80 -71,-110 -32,-32 -69,-54 -112,-67 -55,-17 -104,-13 -147,12 -44,25 -74,64 -90,119 -10,32 -12,57 -8,77 z m -77,790 c -90,-44 -176,-113 -256,-206 l 30,-30 c 33,38 76,70 128,96 66,32 131,51 196,56 12,-10 22,-23 30,-40 25,-50 32,-116 21,-195 l 40,22 c 15,52 21,106 20,163 -2,61 -12,115 -33,160 -50,15 -109,6 -176,-27 z m -121,-425 6,-116 c 49,9 104,29 167,60 107,52 196,123 266,211 l -33,16 c -44,-41 -99,-77 -166,-110 -83,-40 -163,-60 -241,-60 z m -74,989 -42,-94 c 32,2 62,-6 91,-23 27,-17 49,-39 66,-68 6,-11 12,-22 16,-33 l 22,62 c -7,16 -15,32 -23,46 -15,25 -33,48 -55,68 -26,23 -50,38 -74,42 z m -308,-140 14,-24 c -13,-43 -16,-85 -7,-126 19,34 44,61 74,79 41,25 81,22 121,-8 l -42,163 -160,-84 z m 44,-144 c -26,-15 -37,-36 -32,-62 3,-16 13,-39 31,-69 35,-59 78,-100 128,-122 57,-26 114,-23 170,11 59,36 101,84 125,145 24,61 26,125 5,190 -9,-49 -26,-93 -52,-132 -27,-42 -60,-75 -101,-99 -43,-26 -87,-33 -134,-23 -48,10 -85,36 -110,78 -14,23 -25,51 -31,83 z"
   class="fil4"
   id="DE_x0020_MAHJONG" />
   <path
   style="fill:#0e1b26;fill-rule:nonzero"
   inkscape:connector-curvature="0"
   d="m 7987,10185 c 10,22 9,60 -5,112 -25,-7 -53,-9 -82,-7 -30,2 -56,9 -79,21 -27,13 -50,32 -68,57 l -15,-43 c 27,-37 71,-71 132,-100 36,-18 75,-31 117,-40 z m -43,203 -6,103 c -26,-21 -63,-20 -112,3 -7,3 -13,7 -19,11 l -14,-41 c 22,-25 46,-44 74,-57 29,-14 54,-20 77,-19 z m -28,309 -74,87 c -31,-40 -58,-84 -81,-131 -25,-52 -46,-107 -61,-166 -16,-63 -25,-121 -25,-174 l 32,7 c 4,35 18,76 41,125 41,84 97,168 168,253 z m 534,-630 c 18,49 -1,98 -57,147 -41,36 -90,65 -147,87 l -12,-41 c 6,1 13,0 21,-3 27,-10 53,-28 76,-55 26,-31 35,-58 26,-83 -5,-14 -18,-22 -39,-23 -16,-1 -32,1 -48,7 -25,9 -52,25 -81,48 l -8,-39 c 7,-13 25,-29 55,-47 24,-14 47,-26 68,-33 78,-28 126,-16 145,36 z m 254,304 -105,84 c -1,-11 -3,-21 -7,-30 -14,-38 -46,-71 -98,-101 -42,-24 -87,-41 -136,-51 32,-22 48,-33 48,-33 43,-16 97,-7 163,26 58,30 103,65 134,105 z m -371,129 -74,78 c -43,-57 -79,-128 -110,-211 -34,-94 -49,-184 -45,-270 l 47,4 c 4,51 18,108 41,171 34,92 80,168 140,228 z m 977,-262 -91,57 c -18,-87 -43,-168 -75,-241 -47,-110 -98,-168 -152,-172 l 45,-21 c 65,24 125,76 177,156 45,68 77,142 96,221 z m -199,-177 -6,91 c -24,-24 -64,-29 -120,-17 -36,8 -71,20 -104,36 l -3,-28 c 29,-39 72,-65 128,-77 38,-8 73,-9 106,-4 z m -110,-219 c -73,29 -119,92 -139,188 -16,76 -14,160 6,254 3,15 7,29 10,43 l -97,56 -11,-44 c -18,-72 -19,-144 -3,-215 16,-71 47,-137 93,-197 8,-10 20,-24 36,-41 20,-22 32,-33 37,-34 0,0 22,-3 67,-9 z m 839,49 c 7,100 -10,208 -50,325 l -41,-11 c 17,-48 23,-101 19,-159 -5,-73 -22,-139 -50,-198 -15,-5 -31,-8 -49,-6 -56,4 -116,30 -180,79 l 0,-46 c 38,-39 81,-72 131,-99 54,-29 105,-46 155,-52 38,36 59,91 65,166 z m -308,317 -104,53 c -17,-47 -27,-105 -32,-175 -8,-119 8,-231 50,-336 l 30,21 c -13,58 -17,125 -12,199 6,92 29,171 68,238 z m 881,-412 -58,92 c -27,-62 -75,-94 -144,-95 -22,0 -41,2 -57,7 14,-15 27,-30 40,-45 13,-11 30,-17 52,-16 51,1 107,20 168,57 z m 16,324 c -28,31 -61,55 -99,72 -38,17 -78,25 -120,24 -76,-1 -139,-22 -190,-62 -55,-44 -82,-103 -81,-177 1,-51 25,-101 71,-151 48,-52 96,-76 146,-74 l 6,0 c -78,65 -118,134 -119,207 -1,56 17,103 54,143 37,40 83,60 139,61 61,1 120,-27 178,-85 l 16,42 z m -207,143 c 1,-36 -20,-64 -60,-86 10,19 15,38 14,58 0,23 -10,41 -30,51 l 60,29 c 10,-15 16,-32 16,-52 z m 810,39 -106,21 c 14,-88 20,-172 17,-252 -5,-120 -32,-192 -80,-215 l 49,-4 c 53,46 89,116 109,209 17,79 21,160 10,241 z m -122,-236 -38,82 c -14,-31 -49,-50 -106,-59 -37,-6 -73,-7 -110,-4 l 7,-28 c 41,-26 90,-35 147,-26 38,6 72,17 100,34 z m -24,-244 c -79,1 -144,43 -197,126 -42,65 -70,145 -85,239 -2,15 -4,29 -6,43 l -111,17 5,-45 c 9,-74 34,-141 74,-202 40,-61 93,-111 158,-151 11,-7 28,-15 48,-26 26,-13 42,-19 47,-18 0,0 22,5 66,16 z m 352,530 -104,18 c -1,-44 6,-95 21,-152 33,-125 82,-236 146,-334 l 39,31 c -27,42 -49,94 -66,156 -25,95 -38,189 -36,281 z m 595,-232 -79,52 c -16,-44 -48,-74 -95,-91 -11,-4 -21,-6 -29,-7 19,-8 38,-17 57,-25 16,-5 35,-3 57,5 35,13 65,35 88,67 z m -63,289 c -14,39 -46,64 -96,75 -44,10 -86,8 -127,-7 23,-3 45,-10 65,-19 26,-12 42,-27 48,-45 8,-22 -8,-52 -47,-90 -36,-35 -73,-70 -110,-105 -37,-43 -49,-83 -36,-118 9,-26 37,-45 82,-57 37,-10 72,-14 105,-11 -49,12 -78,31 -87,55 -7,20 9,52 48,96 37,39 74,78 111,118 39,46 53,81 44,106 z m -185,38 c -19,4 -37,8 -56,13 -22,4 -41,3 -57,-2 -23,-9 -48,-26 -74,-52 -22,-22 -41,-46 -58,-72 l 99,-57 c 8,36 23,69 45,99 25,32 53,54 86,66 5,2 9,3 14,5 z m 790,-49 -89,48 c 5,-33 -5,-64 -28,-93 -20,-25 -47,-46 -81,-62 -9,-4 -18,-8 -26,-11 19,-4 39,-9 58,-13 17,-2 35,2 54,11 23,11 45,28 66,51 20,21 35,45 46,69 z m -186,60 -81,49 c 2,-24 -18,-45 -58,-65 -17,-8 -34,-15 -51,-19 l 23,-33 c 40,-2 76,4 107,19 28,14 48,30 60,50 z m 49,253 c -70,22 -139,16 -208,-17 -70,-34 -119,-78 -148,-133 -32,-61 -32,-126 1,-193 25,-51 66,-90 122,-115 60,-27 115,-28 167,-4 -42,10 -81,29 -115,58 -33,27 -59,61 -78,101 -25,52 -31,100 -17,145 14,45 46,79 97,104 30,15 61,23 92,24 35,2 66,-5 93,-20 l -6,51 z"
   class="fil4"
   id="FRANCAISE" />
   <path
   style="fill:#0e1b26;fill-rule:nonzero"
   inkscape:connector-curvature="0"
   d="m 5582,17042 c 22,-12 59,-12 113,-1 -6,26 -7,53 -3,83 4,29 12,55 25,78 15,26 35,48 60,65 l -42,17 c -39,-25 -74,-67 -107,-126 -20,-35 -35,-74 -46,-115 z m 205,32 103,0 c -20,27 -17,64 9,112 4,7 8,13 12,19 l -40,16 c -26,-20 -46,-44 -61,-71 -15,-28 -23,-53 -23,-76 z m 310,12 90,69 c -38,33 -80,63 -126,88 -50,28 -105,51 -163,69 -62,20 -120,31 -173,34 l 5,-32 c 34,-6 75,-22 122,-48 82,-45 163,-106 244,-181 z m -698,-552 98,22 c -25,21 -38,51 -40,89 -1,32 5,65 20,100 4,9 8,18 13,25 -18,-9 -35,-19 -52,-28 -14,-10 -25,-24 -34,-44 -10,-24 -16,-51 -16,-82 -1,-29 3,-57 11,-82 z m 179,77 93,16 c -17,17 -16,46 1,87 8,18 16,34 26,48 l -39,10 c -32,-24 -54,-53 -68,-85 -12,-29 -16,-54 -13,-77 z m 129,-223 c 67,29 115,79 145,149 30,71 38,137 24,198 -16,68 -58,116 -127,145 -53,22 -108,25 -167,7 -63,-19 -106,-54 -128,-106 39,20 80,31 124,32 43,1 85,-8 126,-25 53,-22 89,-55 108,-98 19,-43 17,-90 -5,-143 -13,-31 -31,-57 -54,-79 -26,-24 -53,-40 -83,-45 l 38,-35 z m -394,316 c 13,28 28,53 48,78 22,28 45,48 68,61 -29,2 -58,-5 -87,-21 -27,-15 -50,-35 -66,-61 l 38,-56 z m 25,-828 c 55,-18 108,-16 161,4 53,21 94,56 123,105 -34,-20 -71,-32 -111,-37 -40,-5 -79,-1 -116,11 -56,18 -95,53 -117,105 -21,49 -22,102 -3,159 23,70 71,121 146,154 l -56,45 c -65,-52 -112,-124 -142,-215 -22,-67 -25,-131 -8,-193 19,-71 60,-117 123,-138 z m 242,114 79,34 c 10,14 18,30 24,47 10,30 12,62 8,99 -4,34 -13,66 -27,95 -57,-50 -120,-64 -189,-41 -41,13 -76,34 -104,62 -26,-14 -50,-43 -70,-87 21,-24 45,-40 74,-50 32,-10 69,-12 110,-4 38,7 73,20 105,39 32,-50 41,-97 27,-140 -8,-24 -20,-43 -37,-56 z m -481,-652 90,46 c -30,15 -50,40 -60,77 -9,31 -10,65 -5,102 2,10 4,19 6,28 -15,-13 -29,-27 -44,-40 -11,-13 -19,-30 -22,-51 -4,-26 -3,-54 4,-83 6,-29 16,-54 30,-77 z m 155,118 86,38 c -20,12 -27,40 -20,85 3,19 8,37 14,53 l -40,1 c -25,-31 -40,-64 -45,-99 -5,-31 -3,-57 6,-78 z m 179,-185 c 58,44 93,104 105,180 12,77 4,142 -24,198 -32,62 -84,98 -158,110 -56,9 -111,-2 -164,-34 -56,-34 -89,-78 -99,-134 33,29 70,49 113,61 41,11 84,13 128,6 57,-9 100,-32 128,-69 29,-37 39,-83 30,-139 -5,-33 -16,-63 -33,-90 -19,-30 -42,-51 -70,-64 l 45,-24 z m -459,211 c 5,30 15,59 28,87 15,32 32,57 51,75 -29,-5 -55,-19 -80,-42 -23,-21 -40,-46 -50,-75 l 51,-45 z m 110,-667 c 52,-1 92,33 120,101 21,50 32,106 34,167 l -43,-2 c 3,-5 4,-12 4,-21 -1,-29 -10,-59 -27,-89 -20,-35 -44,-52 -70,-52 -15,0 -26,10 -35,29 -7,15 -10,31 -9,48 0,26 7,57 19,93 l -40,-5 c -10,-11 -19,-33 -26,-68 -6,-28 -9,-53 -9,-75 -1,-83 26,-125 81,-126 z m 370,-142 45,126 c -10,-2 -21,-4 -31,-3 -40,1 -83,21 -127,60 -36,32 -67,69 -93,112 -10,-38 -15,-57 -15,-57 -1,-46 25,-94 78,-146 47,-45 95,-76 143,-92 z m 1,392 50,95 c -68,22 -146,33 -236,35 -100,2 -190,-14 -270,-46 l 19,-43 c 49,12 108,18 175,17 98,-2 185,-21 261,-58 z m 46,-1010 28,104 c -89,-8 -173,-8 -253,1 -119,13 -189,45 -209,95 l -7,-49 c 42,-56 109,-97 201,-124 78,-23 158,-32 239,-27 z m -227,139 85,33 c -30,16 -47,53 -52,110 -3,37 -2,74 4,110 l -28,-5 c -29,-39 -41,-88 -36,-145 3,-38 12,-73 27,-102 z m -242,41 c 7,78 53,141 139,188 68,37 149,60 245,68 15,1 30,2 44,3 l 25,109 -45,-2 c -74,-4 -143,-24 -207,-60 -63,-36 -117,-85 -162,-147 -7,-11 -17,-26 -29,-46 -15,-25 -22,-40 -22,-46 0,0 4,-22 12,-67 z m 168,-756 63,75 c -47,51 -78,106 -92,167 -14,62 -13,116 4,162 l -37,18 c -37,-77 -46,-158 -26,-243 16,-71 45,-131 87,-180 z m 335,262 36,108 c -49,32 -102,42 -159,28 -39,-9 -79,-28 -120,-57 -38,-27 -70,-58 -97,-93 l 16,-42 c 32,45 73,74 124,86 31,7 65,8 103,2 36,-6 69,-17 98,-32 z m 110,-335 17,105 c -44,0 -94,-8 -152,-24 -124,-36 -234,-86 -331,-152 l 32,-38 c 41,28 93,51 155,69 95,27 188,41 280,41 z m 0,-709 c 49,19 90,54 123,106 31,49 48,101 50,156 -42,-76 -98,-128 -168,-155 -49,-19 -102,-18 -156,2 -55,20 -91,55 -110,103 -6,16 -10,33 -10,51 l -29,-68 c 4,-15 8,-30 14,-43 23,-60 61,-106 114,-136 56,-33 113,-38 172,-15 z m 123,252 42,56 c -5,32 -13,62 -23,90 -25,64 -62,111 -112,139 -54,31 -113,34 -176,10 -52,-20 -95,-60 -128,-121 -34,-61 -44,-118 -32,-172 13,44 35,82 63,115 30,34 65,59 107,75 53,20 103,20 148,-1 45,-21 78,-59 99,-113 12,-31 16,-56 13,-77 z m 125,-787 c 88,49 169,122 245,219 l -32,28 c -31,-40 -72,-74 -123,-103 -64,-35 -128,-57 -193,-66 -13,9 -23,22 -32,38 -27,49 -38,114 -32,194 l -38,-25 c -12,-53 -16,-107 -11,-164 5,-61 18,-114 41,-158 51,-12 109,0 175,36 z m 99,431 -12,116 c -48,-12 -103,-34 -164,-68 -104,-58 -189,-133 -254,-225 l 34,-14 c 42,43 95,82 160,119 80,45 159,69 237,72 z"
   class="fil4"
   id="FEDERATION" />
   <path
   style="fill:#0000ff"
   inkscape:connector-curvature="0"
   d="m 9925,10841 c 241,-60 -125,536 -562,1230 -461,733 -1043,1426 -1248,2057 -205,631 -135,923 -181,1347 183,-407 323,-854 443,-1301 122,-451 418,-928 674,-1379 492,-868 881,-1607 1247,-2005 6,10 8,20 6,35 79,-88 67,-152 216,-108 150,44 177,516 -66,1197 -128,360 -331,785 -546,1259 -206,454 -317,936 -440,1426 -194,701 -428,1267 -698,1729 -257,440 -444,755 -605,938 -280,319 -448,295 -561,157 -494,-230 -312,-152 31,-377 211,-138 452,-469 708,-920 271,-478 410,-1063 483,-1717 48,-237 66,-644 255,-1112 196,-484 445,-1015 664,-1475 -201,324 -424,708 -668,1112 -251,415 -494,850 -599,1262 -105,412 -209,813 -326,1167 -114,345 -275,637 -451,858 -51,72 -103,126 -159,157 0,1 0,1 0,1 -1,0 -1,0 -1,-1 -59,23 -306,226 -380,188 -34,-17 111,-216 75,-239 -40,-26 -20,-139 -64,-177 -43,-37 -256,65 -275,27 -15,-30 -295,-53 -265,-64 112,-42 34,-122 123,-189 161,-122 449,-436 656,-891 237,-522 396,-1137 630,-1594 162,-316 374,-697 573,-1023 45,-88 88,-172 130,-250 -151,201 -303,405 -457,610 -364,482 -766,933 -978,1370 -173,358 -263,706 -422,983 -93,163 -204,292 -326,388 -55,69 -117,127 -187,172 -119,-54 14,-119 -60,-131 -130,-21 -490,-250 -605,-482 497,406 690,165 803,-245 69,-251 52,-543 208,-835 204,-380 525,-740 830,-1156 549,-943 1379,-1553 784,-539 -322,491 -405,481 -635,793 -486,661 -712,1218 -828,1696 -28,116 -60,224 -96,323 77,-119 147,-254 209,-401 182,-430 422,-925 807,-1451 401,-548 745,-1046 1025,-1442 275,-390 489,-678 646,-808 -2,43 -8,81 -16,114 207,-210 357,-256 477,-286 z"
   class="fil5"
   id="BLEU" />
   <path
   style="fill:#0e1b26;fill-rule:nonzero"
   inkscape:connector-curvature="0"
   d="m 9006,18845 c -1,43 -32,101 -95,173 -34,-31 -76,-55 -124,-74 -48,-19 -95,-28 -140,-28 -53,0 -103,13 -150,38 l 10,-79 c 72,-38 166,-57 285,-57 71,0 143,9 215,27 z m -223,286 -89,158 c -25,-54 -84,-81 -179,-81 -13,0 -26,1 -39,2 l 10,-75 c 53,-23 106,-34 160,-34 56,0 101,10 136,29 z m -282,465 -183,80 c -19,-87 -28,-176 -28,-269 0,-101 11,-204 32,-308 23,-112 54,-210 95,-293 l 45,35 c -21,58 -31,134 -31,228 0,164 24,340 71,528 z m 1292,-751 c -1,43 -32,101 -95,173 -35,-31 -76,-55 -124,-74 -48,-19 -95,-28 -140,-28 -53,0 -103,13 -150,38 l 10,-79 c 72,-38 166,-57 285,-57 71,0 143,9 215,27 z m -223,286 -89,158 c -25,-54 -84,-81 -179,-81 -13,0 -26,1 -39,2 l 10,-75 c 53,-23 106,-34 160,-34 56,0 101,10 136,29 z m -282,465 -183,80 c -19,-87 -28,-176 -28,-269 0,-101 11,-204 32,-308 23,-112 54,-210 95,-293 l 45,35 c -21,58 -31,134 -31,228 0,164 24,340 71,528 z m 1551,-342 c 0,157 -38,292 -115,404 l -64,-59 c 38,-75 57,-163 57,-266 0,-115 -31,-221 -92,-318 l -108,55 -55,-79 c 72,-79 163,-152 272,-218 70,149 105,309 105,480 z m -357,-144 -108,173 c -23,-76 -56,-149 -98,-217 -48,-79 -101,-137 -159,-174 l 30,-79 c 68,24 132,63 193,117 61,54 109,114 143,179 z m -341,460 -183,94 c -38,-128 -57,-266 -57,-413 0,-211 50,-371 151,-481 l 54,30 c -49,117 -74,246 -74,387 0,149 36,277 108,384 z m 1482,-525 c 0,96 -7,187 -22,274 l -90,84 c 5,-35 8,-71 8,-107 0,-74 -10,-152 -31,-233 -21,-81 -49,-154 -85,-217 l 173,-80 c 31,65 47,159 47,281 z m -57,357 c -9,68 -39,125 -91,170 -52,45 -112,68 -181,68 -78,0 -147,-28 -209,-85 -62,-57 -91,-123 -89,-198 l 0,-14 158,-84 c 11,62 32,121 64,176 41,71 87,106 137,106 71,0 141,-46 210,-139 z"
   class="fil4"
   id="FFMJ" />
   <g
   id="g32">
    <g
   id="TUILE_OMBRE">
     <path
   style="fill:none"
   inkscape:connector-curvature="0"
   d="m 9317,12755 1673,205 c 384,47 658,403 611,792 l -300,2444 c -48,388 -401,668 -784,620 l -1673,-205 c -384,-47 -658,-403 -611,-792 l 300,-2444 c 48,-388 401,-668 784,-620 z"
   class="fil0"
   id="TUILE_OMBRE-INTERIEURE" />
     <path
   style="fill:none"
   inkscape:connector-curvature="0"
   d="m 9158,12743 588,-80 29,-3 29,-2 -603,82 603,-82 30,0 30,1 -593,82 -5,0 10,1 -5,0 593,-82 30,3 -588,83 588,-83 1406,173 -336,114 336,-114 30,4 29,6 -322,114 322,-114 29,7 28,9 -309,116 309,-116 27,10 27,12 -296,118 296,-118 26,13 25,14 -285,122 285,-122 24,15 24,16 -273,126 273,-126 23,18 22,19 -263,130 263,-130 21,20 20,21 -253,135 253,-135 19,22 18,22 -244,141 244,-141 17,23 16,24 -236,146 236,-146 15,25 13,26 -228,152 228,-152 12,26 11,27 -220,158 220,-158 10,27 9,28 -213,163 213,-163 7,29 6,29 -207,168 207,-168 4,29 3,30 -200,172 200,-172 2,30 0,30 -193,175 193,-175 -1,31 -3,31 -186,175 186,-175 -255,2077 -236,636 236,-636 -5,31 -6,30 -237,645 237,-645 -7,30 -9,29 -236,643 c 2,-5 3,-11 5,-17 l 210,-571 11,-27 10,-28 -236,643 c -13,44 -30,86 -51,125 l 0,1 0,0 c -49,96 -118,178 -201,244 -105,83 -226,106 -358,105 -5,0 -6,1 0,0 118,-17 227,-80 319,-154 135,-107 231,-265 254,-450 l 0,-3 300,-2444 c 33,-266 -93,-517 -303,-654 -41,-27 -85,-49 -131,-66 -46,-17 -96,-30 -147,-36 l -3,0 -1673,-205 -3,0 c -182,-22 -357,34 -492,141 -135,107 -231,265 -254,450 l 0,3 -289,2382 c -33,266 93,517 303,654 41,27 85,49 131,66 46,17 96,30 147,36 l 261,95 -269,-33 c -56,-7 -110,-21 -161,-40 -51,-19 -99,-44 -144,-73 -229,-150 -366,-423 -331,-714 l 289,-2382 0,0 0,-3 c 26,-201 130,-374 277,-491 110,-87 245,-143 389,-156 z m 2142,3587 c 3,-10 5,-19 7,-29 l 189,-515 13,-27 -210,571 z m -2060,-3590 -6,0 2,0 4,0 z"
   class="fil0"
   id="TUILE_OMBRE_0" />
    </g>
    <g
   id="LaTuile">
     <path
   style="fill:#fefefe"
   inkscape:connector-curvature="0"
   d="m 9350,12842 1595,197 c 366,45 627,387 582,759 l -286,2343 c -45,372 -382,640 -747,595 l -1595,-197 c -366,-45 -627,-387 -582,-759 l 286,-2343 c 45,-372 382,-640 747,-595 z"
   class="fil1"
   id="TUILE_INTERIEUR" />
     <path
   style="fill:#0e1b26"
   inkscape:connector-curvature="0"
   d="m 9198,12831 561,-76 28,-3 28,-2 -575,79 575,-79 28,0 29,1 -565,79 -5,0 9,1 -4,0 565,-79 29,3 -560,80 560,-80 1340,166 -321,109 321,-109 29,4 28,6 -307,110 307,-110 27,7 27,8 -295,111 295,-111 26,10 26,11 -283,114 283,-114 25,12 24,13 -271,117 271,-117 23,15 23,16 -261,120 261,-120 22,17 21,18 -251,125 251,-125 20,19 19,20 -241,130 241,-130 18,21 17,21 -233,135 233,-135 16,22 15,23 -225,140 225,-140 14,24 13,24 -217,146 217,-146 12,25 11,26 -210,151 210,-151 9,26 8,27 -203,156 203,-156 7,27 6,28 -197,161 197,-161 4,28 3,29 -191,165 191,-165 1,29 0,29 -184,167 184,-167 -1,29 -3,30 -177,168 177,-168 -243,1992 -225,610 225,-610 -4,29 -6,29 -226,618 226,-618 -7,28 -8,28 -225,616 c 2,-5 3,-11 5,-16 l 200,-547 11,-26 10,-27 -225,616 c -13,42 -29,82 -48,120 l 0,1 0,0 c -47,92 -113,171 -191,234 -100,80 -215,102 -341,100 -5,0 -6,1 0,0 113,-16 216,-77 304,-148 129,-103 220,-254 242,-431 l 0,-3 286,-2343 c 31,-255 -89,-496 -288,-627 -39,-26 -81,-47 -125,-64 -44,-17 -91,-28 -140,-35 l -3,0 -1595,-197 -3,0 c -173,-21 -340,33 -469,135 -129,103 -220,254 -242,431 l 0,3 -276,2284 c -31,255 89,496 288,627 39,26 81,47 125,64 44,17 91,28 140,35 l 249,91 -256,-32 c -53,-7 -105,-20 -153,-38 -49,-18 -95,-42 -137,-70 -218,-143 -349,-406 -315,-685 l 276,-2284 0,0 0,-3 c 24,-193 124,-359 264,-471 105,-84 233,-137 371,-150 z m 2042,3439 c 3,-9 5,-18 7,-28 l 181,-494 12,-26 -200,547 z m -1963,-3442 -6,0 2,0 4,0 z"
   class="fil3"
   id="TUILE_EPAISSEUR" />
     <g
   id="leCoq">
      <path
   style="fill:#0e1b26;fill-rule:nonzero"
   inkscape:connector-curvature="0"
   d="m 8888,14140 c 481,-451 1237,645 1373,1069 l -49,-44 0,0 c -44,-275 -1376,-2187 -1460,146 -39,-12 -33,-978 136,-1171 z"
   class="fil4"
   id="QUEUE_SUP" />
      <path
   style="fill:#0e1b26;fill-rule:nonzero"
   inkscape:connector-curvature="0"
   d="m 9084,14334 c 325,-322 818,391 1076,791 l 106,284 0,0 c -149,-271 -687,-1047 -987,-1073 -192,-17 -374,273 -118,1174 -39,-12 -401,-852 -76,-1174 z"
   class="fil4"
   id="QUEUE_SUP2" />
      <path
   style="fill:#0e1b26;fill-rule:nonzero"
   inkscape:connector-curvature="0"
   d="m 9314,14675 c 132,-131 297,-123 417,39 1253,1685 34,-58 -222,-38 -164,12 -380,247 37,1112 -39,-12 -557,-790 -231,-1112 z"
   class="fil4"
   id="QUEUE_INF2" />
      <path
   style="fill:#0e1b26;fill-rule:nonzero"
   inkscape:connector-curvature="0"
   d="m 10177,15426 c -61,-196 -412,-573 -590,-516 -361,114 17,580 153,667 -141,-166 -301,-493 -169,-577 145,-92 431,277 485,449 130,418 143,617 -40,1048 222,-334 269,-727 162,-1071 z"
   class="fil4"
   id="QUEUE_INF" />
      <path
   style="fill:#0e1b26;fill-rule:nonzero"
   inkscape:connector-curvature="0"
   d="m 10251,14120 c 292,285 0,0 292,285 174,169 412,458 337,694 -103,325 -217,513 -394,806 -66,110 -196,317 -356,546 348,-809 -1,-1 348,-809 70,-162 160,-446 173,-596 15,-165 -53,-383 -188,-594 l -212,-332 z"
   class="fil4"
   id="POITRINE" />
      <path
   style="fill:#0e1b26"
   inkscape:connector-curvature="0"
   d="m 10680,14362 c -9,-104 187,-87 190,-121 -198,-8 -288,-61 -484,-143 77,96 174,249 295,265 z"
   class="fil3"
   id="BARBE" />
      <path
   style="fill:#0e1b26"
   inkscape:connector-curvature="0"
   d="m 10035,13902 c 204,-40 197,-66 302,-128 305,-192 -42,-430 -29,-359 29,161 -574,-12 -608,-16 5,27 415,194 420,223 5,-14 -91,157 -343,78 -48,-15 -256,-58 -481,-125 89,74 684,338 739,327 z"
   class="fil3"
   id="CRIGNERE" />
      <path
   style="fill:#0e1b26"
   inkscape:connector-curvature="0"
   d="m 10251,13907 c 31,1 56,27 56,58 -1,32 -26,57 -58,56 -31,-1 -56,-27 -56,-58 1,-32 26,-57 58,-56 z"
   class="fil3"
   id="OEIL" />
      <path
   style="fill:#0e1b26"
   inkscape:connector-curvature="0"
   d="m 10214,14580 c 21,-169 11,-304 -30,-487 115,169 210,389 168,595 -33,160 -122,231 -86,464 -171,-337 -78,-363 -52,-572 z"
   class="fil3"
   id="DOS" />
      <path
   style="fill:#0e1b26"
   inkscape:connector-curvature="0"
   d="m 10449,13972 c 93,70 181,58 259,-14 -14,26 -14,78 -39,94 -84,57 -198,35 -254,-50 -57,-84 -34,-199 49,-256 27,-18 83,1 116,-1 -95,39 -156,101 -132,226 z"
   class="fil3"
   id="BEC" />
     </g>
    </g>
   </g>
  </g>
</svg>