<?xml version="1.0" encoding="UTF-8"?> <svg xmlns="http://www.w3.org/2000/svg" xmlns:xlink="http://www.w3.org/1999/xlink" version="1.1" id="Layer_1" x="0px" y="0px" width="194px" height="281px" viewBox="0 0 194 281" style="enable-background:new 0 0 194 281;" xml:space="preserve"> <style type="text/css"> .st0{fill:#1D562B;} .st1{fill:#F7941E;} .st2{fill:#BAD6C6;} .st3{fill:#F18C21;} .st4{fill:#009447;} .st5{fill:#225129;} </style> <g> <g id="svg_1"> <polygon id="svg_2" class="st0" points="30.3,37.4 11.6,19.2 11.6,29.4 11.6,29.4 11.6,214.3 11.6,214.3 11.6,224.6 30.3,206.4 "></polygon> <polygon id="svg_3" class="st0" points="163.8,207.5 182.5,225.6 182.5,221.2 182.5,214.3 182.5,29.4 182.5,18.2 163.8,36.3 "></polygon> <polygon id="svg_4" class="st0" points="155.4,214.3 37.7,214.3 18.9,232.4 174.1,232.4 "></polygon> <polygon id="svg_5" class="st0" points="155.5,29.4 174.2,11.3 163.8,11.3 30.3,11.3 18.8,11.3 37.6,29.4 "></polygon> </g> <g id="svg_6"> <g id="svg_7"> <path id="svg_8" class="st0" d="M98,102.1c-1.9,2.5-11.1,15.9-11.7,19.3c4-2.7,18.8-3.6,23.3-1.9c-1.5-2.1-3-4.6-4.6-6.8 c-1.5-2.7-5.3-8.3-5.9-10.6"></path> </g> <path id="svg_9" class="st0" d="M94,131.2c1.2-0.1,2.4,0,3.6,0c-1.3,1.8-2.5,3.8-3.6,5.8C94.5,135.1,94.5,133.1,94,131.2L94,131.2 z"></path> <path id="svg_10" class="st0" d="M94,146c3.1-4.7,6.6-9.1,10.2-13.4c-0.7-0.3-1.4-0.6-2.1-0.8c-3.4,4.2-5.6,9.3-8.2,14.1L94,146 L94,146z"></path> <path id="svg_11" class="st0" d="M97.8,147.9c3.5-3.3,10.4-11.1,10.8-11.1c-0.5-0.9-1.1-1.7-1.7-2.4c0,0,0,0,0,0 c-3.6,4.2-7,8.5-10,13.1L97.8,147.9z"></path> <path id="svg_12" class="st0" d="M109.6,139.6c0.4,1.9,0.4,3.8,0.3,5.7c0,0.5-0.1,1-0.1,1.5c-2.5,0.2-5.1,0.5-7.5,1 C104.7,145,106.8,142,109.6,139.6L109.6,139.6z"></path> <path id="svg_13" class="st0" d="M93.6,128.3c-0.2-0.4-0.5-0.7-0.8-1.1c6.8-3.1,14.7-4.2,20.9-0.9c4.5,2.4,6,5.8,7.9,9.5 c-3.3,2-6.2,4.6-8.5,7.5c0,0,0,0,0,0C116.1,129.4,100.2,127.9,93.6,128.3z"></path> <path id="svg_14" class="st0" d="M92.1,123.8c7.2-1.7,14.6-2.9,21.9,0c4.7,1.9,7.2,6.3,9.5,10.5c1.1-0.5,2.2-0.9,3.3-1.2 c-2.5-3.1-6.3-12.1-20.8-12.4c-3.7-0.1-8,0.2-14.1,2.6L92.1,123.8L92.1,123.8z"></path> <path id="svg_15" class="st0" d="M43.4,169.6c-3.8-0.9-2.7-4.2-1.6-6.9c7.5-17.7,22.1-26,25.2-26.3c0.2,0,0.4-0.1,0.5-0.2 c0,0.3,0.1,0.5,0.1,0.8c-11.6,5.6-20.8,20-20.6,32.9C45.8,170,44.6,169.9,43.4,169.6L43.4,169.6z"></path> <path id="svg_16" class="st0" d="M60,167.6c-2.7,0.9-5.3,1.3-8,1.8c-0.6,0.1-1.2,0.2-1.8,0.3c0.1-11.5,8.1-24.2,18.4-29.5 c0.3,0.7,0.6,1.4,0.9,2c0.5,1.1,1.4,2.4,2.5,3.5c-6.2,4.2-7.4,12.2-5.9,19.6c0,0.2,0.1,0.4,0.1,0.6 C64.1,166.2,62.1,166.9,60,167.6L60,167.6z"></path> <path id="svg_17" class="st0" d="M127.7,165.1c1.2-2.7,1.7-5.8,1.1-8.7c-1.1-5.9-5.8-8.5-11.4-9.3c-1-0.1-1.9-0.2-2.9-0.3 c2.5-3.6,10.4-9,10.6-9.1c11.8,0.5,26.1,17.7,24.2,32c0,0.1,0,0.2,0,0.3C146.4,170.5,131.7,166.2,127.7,165.1L127.7,165.1z"></path> <path id="svg_18" class="st0" d="M152.7,167.5c0.6-13.7-8.8-27.5-21.8-31.7c0.6-0.1,1.3-0.2,2-0.2c8.2-0.5,14.5,7.2,18,13.7 c1.8,3.4,2.9,7.2,3.1,11.1C154.2,162.5,153.9,165.4,152.7,167.5L152.7,167.5z"></path> <path id="svg_19" class="st0" d="M147.9,118.8c-2.9,3-13.7,12.4-15.7,13.4c-0.6,0.3-1.4,0.3-1.9-0.3c-0.8-0.9-1.5-1.8-2.2-2.8 c-0.6-0.8-0.3-1.5,0.3-1.9c0.1-0.1,14-6.9,19.1-9.3L147.9,118.8L147.9,118.8z"></path> <path id="svg_20" class="st0" d="M92.6,173.7v10.8c0,1.3-0.8,2.4-1.7,2.4c-1,0-1.7-1.1-1.7-2.4v-10.8H92.6z"></path> <path id="svg_21" class="st0" d="M105.4,173.7v11.8c0,1.4-0.8,2.6-1.7,2.6s-1.7-1.2-1.7-2.6v-11.8H105.4L105.4,173.7z"></path> <polygon id="svg_22" class="st1" points="72.8,126.9 68.8,130.6 57.3,119.8 "></polygon> <polygon id="svg_23" class="st1" points="68.2,131.8 68.1,134.6 60.2,134.8 "></polygon> <path id="svg_24" class="st0" d="M125.4,155.9c-1-3.2-3.7-4.8-6.8-5.4c-3.9-0.8-7.9-0.7-11.8-0.2c-3.2,0.4-6.4,1.5-9.6,1.8 c-5.9,0.6-9.8-3.7-7.6-9.5c1.3-3.3,2.8-6.7,2.2-10.4c-0.4-2.3-3.9-5.7-5.9-6.2c-5-1.4-11.8,0.1-14.3,5c-1.5,2.8-1,6.2,0.4,9 c0.5,1,4.8,4,4.9,6.2c0,0-0.4,0.6-0.5,0.6c-0.1,0.1-0.3,0.2-0.5,0.3c-7.1,2.7-8.2,10.8-6.7,17.5c1.9,8.1,13.9,6.2,19.9,6 c5.7-0.2,11.3,0.8,16.9,0.9c5.7,0.1,14.1-0.3,17.6-5.7C125.5,162.9,126.5,159.2,125.4,155.9L125.4,155.9z M80.4,137 c-1.8,0-3.2-1.4-3.2-3.2c0-1.8,1.4-3.2,3.2-3.2s3.2,1.4,3.2,3.2C83.6,135.6,82.1,137,80.4,137z"></path> <g id="svg_25"> <g id="svg_26"> <path id="svg_27" class="st2" d="M120.4,64.7c-0.7-4.8-4.9-10.2-10.2-11c-3.1-0.6-7.1-0.2-9.5,3.7l3.6,11.1 c-12.3-19.8-30.8-15.1-27,2.3C79.2,78.6,99.1,97,99.1,97l4.4-2.9C112.1,87.8,122.4,76.5,120.4,64.7L120.4,64.7z M117.5,65.9 c-0.1,1.4-0.3,2.6-0.5,3.6c-0.3,1-0.6,1.9-0.9,2.8c-0.3,0.9-0.7,1.7-1.1,2.6c-0.5,0.9-1,1.9-1.8,2.9c0.6-1.1,0.8-2.2,0.9-3.2 c0.1-1,0.1-1.8,0-2.7c-0.1-0.8-0.2-1.7-0.5-2.5c-0.2-0.9-0.5-1.8-0.9-2.8l-1.1-2.6c-0.3-0.7-0.6-1.3-0.8-1.9 c-0.2-0.5-0.5-1-0.8-1.6c-0.3-0.5-0.5-1-0.4-1.5c0.1-0.5,0.5-0.9,1.2-1.1c0.7-0.2,1.9-0.1,3,0.6c1.1,0.6,2.2,1.8,2.8,3.1 C117.3,63,117.6,64.5,117.5,65.9L117.5,65.9z"></path> </g> </g> <g id="svg_28"> <g id="svg_29"> <path id="svg_30" class="st3" d="M140,103.3l-11.3,3c20.5-11.2,16.8-29.9-0.8-27.1c-7.9,1.5-27.4,20.3-27.4,20.3l2.7,4.6 c5.8,8.9,16.5,19.8,28.4,18.5c4.9-0.5,10.5-4.3,11.5-9.5C143.9,110,143.7,105.9,140,103.3L140,103.3z M124.7,102 c1.2-0.5,2.2-1.1,3-1.6c0.8-0.6,1.4-1.2,2-1.8c1.1-1.3,2-2.7,2.8-4.8c0.8-2,1.5-3.8,2.2-5.3c0.7-1.5,1.5-2.7,2.5-2.7 c0.5,0,1,0.3,1.4,0.9c0.4,0.6,0.7,1.5,0.8,2.6c0.1,1.1-0.1,2.4-0.5,3.7c-0.5,1.3-1.2,2.6-2.2,3.6c-1,1.1-2,1.8-3,2.4 c-0.9,0.6-1.8,1-2.7,1.4c-0.9,0.4-1.8,0.7-2.8,1C127.2,101.5,126.1,101.8,124.7,102L124.7,102z"></path> </g> </g> <g id="svg_31"> <g id="svg_32"> <path id="svg_33" class="st4" d="M71,77.1c-17.4-3.7-22.1,14.7-2.3,27l-11.1-3.6c-3.8,2.4-4.3,6.4-3.7,9.5 c0.7,5.3,6.2,9.4,11,10.2c11.7,2,23.1-8.3,29.4-16.9l2.9-4.4C97.3,98.9,78.8,79,71,77.1L71,77.1z M81.3,92 c-0.8-0.8-1.7-1.4-2.5-1.9c-0.8-0.5-1.7-1-2.7-1.5c-1-0.5-2.1-0.9-3.3-1.3c-1.2-0.4-2.3-0.7-3.2-0.8c-0.9-0.2-1.6-0.2-2.3-0.2 c-1.3,0-2.8,0.6-3.6,0c-0.4-0.3-0.6-0.9-0.4-1.7c0.2-0.8,0.9-1.9,2.2-2.7c0.7-0.4,1.5-0.7,2.3-0.9s1.8-0.2,2.6,0 c1.7,0.2,3.3,1,4.7,2c1.4,1,2.3,2,3.1,2.9c0.8,0.9,1.4,1.8,2.1,2.7c0.6,0.9,1.2,1.8,1.8,2.8c0.6,1,1.2,2.2,1.8,3.6 C83,93.7,82.1,92.8,81.3,92L81.3,92z"></path> </g> </g> </g> <g id="svg_34"> <path id="svg_35" class="st5" d="M63.5,252.7c0-0.7,0-1.1-0.1-1.5h1.5c-0.1,0.4-0.1,0.7-0.1,1.5v0.5h5.6c1.1,0,1.7,0,2.2-0.1v1.4 c-0.7-0.1-1.3-0.1-2.2-0.1H57.2c0,5.7-0.2,8.5-0.6,10.9c-0.3,1.7-0.8,3-1.5,4.2c-0.3-0.4-0.6-0.6-1.1-0.9c0.6-1,0.9-1.7,1.2-2.9 c0.5-2,0.6-4.7,0.6-9.8c0-1.4,0-2.1-0.1-2.7c0.6,0.1,1.2,0.1,2,0.1h5.6L63.5,252.7L63.5,252.7L63.5,252.7z M60.7,256.9 c0-0.8,0-1.2-0.1-1.8H62c-0.1,0.4-0.1,0.9-0.1,1.8v1h0.7c0.6,0,1.2,0,1.6-0.1v1.3c-0.5-0.1-1-0.1-1.6-0.1H62 c1,1.8,1.4,2.2,2.5,3.2c-0.3,0.4-0.5,0.6-0.7,1.1c-0.9-1-1.4-1.9-2-3.2c0.1,1,0.1,2.2,0.1,3v4.5c0,1.1,0,1.7,0.1,2.2h-1.4 c0.1-0.6,0.1-1.1,0.1-2.2v-4c0-0.6,0.1-2.2,0.1-3.2c-0.7,2.7-1.7,4.6-3.4,6.6c-0.3-0.5-0.5-0.7-0.9-1.1c1.7-1.7,3-3.9,4-6.8h-1.4 c-0.7,0-1.2,0-1.6,0.1v-1.3c0.4,0.1,0.8,0.1,1.6,0.1h1.4L60.7,256.9L60.7,256.9L60.7,256.9z M66.4,258.9c-0.5,0-1.1,0-1.6,0.1 v-1.3c0.5,0.1,1,0.1,1.7,0.1h0.7v-0.6c0-1,0-1.5-0.1-2.1h1.4c-0.1,0.5-0.1,1.1-0.1,2.1v0.6h2.1c0.8,0,1.3,0,1.7-0.1v1.3 c-0.4-0.1-1-0.1-1.7-0.1h-2c1.2,3,2.6,5,4.6,6.8c-0.3,0.3-0.5,0.6-0.8,1.1c-1.9-2.2-2.7-3.5-4-6.7c0.1,1.4,0.1,1.4,0.1,3.2v4.2 c0,1.1,0,1.6,0.1,2.2h-1.4c0.1-0.6,0.1-1.1,0.1-2.2v-4c0-0.7,0-2.1,0.1-3.1c-0.9,2.6-2,4.6-3.7,6.5c-0.3-0.5-0.4-0.6-0.9-1 c1.9-1.8,3.4-4.2,4.4-7L66.4,258.9L66.4,258.9z"></path> <path id="svg_36" class="st5" d="M93,267.9c0.9,0,1.3,0,1.8-0.1v1.2c-0.5-0.1-1-0.1-1.8-0.1H81.2v0.9h-1.4 c0.1-0.7,0.1-1.4,0.1-2.1v-6.5c-1.2,0.5-1.3,0.5-2.7,0.9c-0.3-0.6-0.3-0.6-0.7-1.2c2.3-0.5,3.8-1,5.8-1.8c2.5-1.1,4.6-2.3,6.2-3.7 c0.4-0.4,0.7-0.6,0.9-0.9l1,0.9c-0.2,0.1-0.6,0.4-1.2,0.9c-1.9,1.5-3.4,2.3-6.1,3.6c0.3,0,0.3,0,0.8,0c0.3,0,0.9,0,1.2,0h2.5 c0.6-0.8,1-1.3,1.4-2.3l1.2,0.4c-0.6,1-0.8,1.4-1.4,1.9h3.4c0.9,0,1.3,0,1.9-0.1v1.2c-0.5-0.1-1-0.1-1.8-0.1h-4.8v1.6h3.9 c0.9,0,1.3,0,1.8-0.1v1.2c-0.5-0.1-0.9-0.1-1.8-0.1h-3.9v1.7h3.9c0.9,0,1.3,0,1.8-0.1v1.2c-0.5-0.1-0.9-0.1-1.8-0.1h-3.9v1.7 L93,267.9L93,267.9L93,267.9z M82.3,253c-1.2,1.8-1.7,2.5-2.6,3.4c-0.7,0.7-1.1,1.1-1.8,1.6c-0.3-0.4-0.4-0.6-1-1 c2.2-1.5,3-2.3,4.4-4.7L82.3,253z M86.4,262.4v-1.6h-5.2v1.6H86.4z M81.2,265.1h5.2v-1.7h-5.2V265.1z M81.2,267.9h5.2v-1.7h-5.2 V267.9z M86.7,251.2c-0.1,0.4-0.1,0.9-0.1,1.5v2.7c0,1.1-0.3,1.3-2.1,1.3c-0.6,0-1.1,0-1.9-0.1c-0.1-0.4-0.1-0.8-0.3-1.2 c1,0.1,1.6,0.2,2.2,0.2c0.7,0,0.9-0.1,0.9-0.4v-2.6c0-0.6,0-1.1-0.1-1.5H86.7z M90.6,252.2c1.5,2,2.6,3,4.5,4.1 c-0.5,0.3-0.6,0.5-0.9,1c-1.9-1.3-3-2.4-4.6-4.5L90.6,252.2z"></path> <path id="svg_37" class="st5" d="M113.3,263.3c-0.1,0.1-0.2,0.1-0.3,0.3c-1.3,1.4-2.1,2.1-3.6,3c2.4,1.1,5,1.6,8,1.8 c-0.3,0.4-0.4,0.7-0.6,1.3c-1.6-0.1-2.8-0.4-4.6-0.9c-1.4-0.4-2.6-0.9-3.9-1.5c-2.4,1.2-4.9,1.9-8.2,2.4c-0.2-0.5-0.3-0.8-0.7-1.2 c3.3-0.4,5.3-0.9,7.7-1.9c-1.2-0.7-2-1.5-2.9-2.4c-1.2,1-1.9,1.5-3.8,2.4c-0.3-0.4-0.4-0.6-0.9-1c2-0.9,3-1.4,4.1-2.4 c0.8-0.7,1.1-1,1.9-2c-0.8-0.1-1.1-0.3-1.1-1v-1.5c0-0.6,0-1-0.1-1.5h1.4c-0.1,0.4-0.1,0.8-0.1,1.3v1.3c0,0.2,0,0.2,0.2,0.3 c0.3,0.1,0.9,0.1,2,0.1c2.1,0,2.9,0,3.2-0.2c0.3-0.1,0.4-0.5,0.6-1.5c0.3,0.3,0.7,0.4,1.1,0.6c-0.5,2.1-0.6,2.1-4.4,2.1 c-0.7,0-0.9,0-1.4,0c-0.6,0.8-0.7,1-1.1,1.4h5.1c0.9,0,1.4,0,1.8-0.1L113.3,263.3L113.3,263.3z M103.2,255.4 c-0.2-0.7-0.5-1.2-0.9-1.8c-0.1,0-0.7,0-1.8,0c-0.2-0.5-0.2-0.7-0.5-1.1c0.5,0,0.8,0,1.1,0c3.1,0,7.1-0.2,9.9-0.6 c2.1-0.2,3.2-0.5,4-0.8l1,1.2c-1.4,0.3-2.4,0.4-2.8,0.5l1.1,0.3c-0.7,1.4-0.9,1.6-1.3,2.2h1.6c1,0,1.7,0,2.3-0.1 c-0.1,0.5-0.1,0.9-0.1,1.5v1.2c0,0.4,0,0.9,0.1,1.3h-1.3v-2.8h-14.7v2.9h-1.3c0.1-0.5,0.1-0.9,0.1-1.4v-1.1c0-0.5,0-1-0.1-1.5 c0.7,0.1,1.2,0.1,2.5,0.1H103.2z M100,261.3c1.4-1.2,1.9-2,2.5-3.6l1.1,0.5c-0.7,1.7-1.3,2.6-2.6,4L100,261.3z M107.8,255.4 c-0.2-0.7-0.5-1.4-0.9-2c-1.5,0.1-2.6,0.1-3.5,0.2c0.3,0.6,0.6,1,0.9,1.8H107.8z M105,263.6c0.8,1,1.8,1.7,3.1,2.5 c1.4-0.8,2.2-1.4,3.2-2.5H105z M109.2,259.5c-0.9-0.9-1.5-1.4-2.6-2l0.7-0.7c1.4,0.8,1.6,1,2.7,1.9L109.2,259.5L109.2,259.5z M111.7,255.4c0.5-0.8,0.9-1.6,1.3-2.6c-1.6,0.2-2.8,0.3-4.8,0.5c0.4,0.9,0.6,1.3,0.9,2H111.7L111.7,255.4z M115.3,262 c-1.1-1.8-1.7-2.6-3-3.9l0.9-0.6c1.4,1.4,2.1,2.2,3.1,3.7L115.3,262z"></path> <path id="svg_38" class="st5" d="M126.7,252.3c0-0.5,0-0.8-0.1-1.2h1.4c-0.1,0.4-0.1,0.6-0.1,1.2v0.2h4.7v-0.2 c0-0.5,0-0.8-0.1-1.2h1.4c-0.1,0.4-0.1,0.6-0.1,1.2v0.2h3.4c0.9,0,1.5,0,2.1-0.1v1.3c-0.6-0.1-1.2-0.1-2-0.1h-3.4 c0,0.4,0,0.6,0.1,0.9h-1.4c0-0.3,0.1-0.5,0.1-0.9H128c0,0.4,0,0.5,0.1,0.9h-1.4c0.1-0.3,0.1-0.4,0.1-0.9h-3.2c-0.9,0-1.5,0-2,0.1 v-1.3c0.6,0.1,1.2,0.1,2.1,0.1h3.2L126.7,252.3L126.7,252.3z M127.6,254.9c0.8,0,1.1,0,1.7-0.1c0,0.5-0.1,0.9-0.1,1.5v1.8 c0,0.8,0,1,0,1.4c-0.4,0-1.1-0.1-1.7-0.1h-3.9v8c0,1.1,0,1.7,0.1,2.5h-1.5c0.1-0.9,0.1-1.5,0.1-2.6V257c0-1,0-1.5-0.1-2.2 c0.5,0.1,1.1,0.1,2.1,0.1L127.6,254.9L127.6,254.9z M123.7,256.7h4.5v-1h-4.5V256.7z M123.7,258.5h4.5v-1h-4.5V258.5z M133.9,260.3c0.8,0,1.3,0,1.8-0.1v1.1c-0.5-0.1-1.1-0.1-1.8-0.1h-3.1v0.9h2.6c0.6,0,1.2,0,1.7,0c0,0.4,0,0.7,0,1.3v1.4 c0,0.7,0,0.9,0,1.4c-0.5,0-1.1,0-1.7,0h-1.9c1.1,0.8,2,1.2,3.9,1.8c-0.3,0.3-0.5,0.5-0.7,1c-1.9-0.8-2.9-1.5-3.8-2.5 c0.1,1,0.1,1.1,0.1,1.3v0.7c0,0.4,0,0.8,0.1,1.2h-1.2c0.1-0.4,0.1-0.7,0.1-1.2v-0.7c0-0.4,0-0.8,0.1-1.3c-0.9,0.9-1.4,1.3-2.4,1.9 c-0.9,0.5-1.4,0.7-2.2,1c-0.2-0.4-0.4-0.6-0.8-0.9c1.4-0.4,2.2-0.7,3.2-1.3c0.6-0.3,0.8-0.5,1.4-1h-1.5c-0.7,0-1.3,0-1.8,0 c0-0.4,0.1-0.9,0.1-1.4v-1.3c0-0.7,0-1,0-1.4c0.5,0,1.1,0,1.7,0h2.2v-0.9h-2.9c-0.8,0-1.2,0-1.8,0.1v-1.1c0.5,0.1,1.1,0.1,1.8,0.1 h2.9c0-0.4,0-0.7-0.1-1.1h1.2c-0.1,0.4-0.1,0.7-0.1,1.1L133.9,260.3L133.9,260.3L133.9,260.3z M129.8,262.7h-2.9v0.9h2.9V262.7z M129.8,264.3h-2.9v1h2.9V264.3z M134,263.6v-0.9h-3.2v0.9H134z M134,265.2v-1h-3.2v1H134z M138.5,268.2c0,1.1-0.4,1.4-1.8,1.4 c-0.3,0-0.9,0-1.5-0.1c-0.1-0.5-0.1-0.8-0.3-1.2c0.6,0.1,1.3,0.2,1.8,0.2c0.5,0,0.6-0.1,0.6-0.5v-8.7h-4.2c-0.7,0-1.4,0-1.8,0.1 c0-0.4,0-0.7,0-1.4v-1.8c0-0.4,0-0.9-0.1-1.4c0.5,0.1,1,0.1,1.9,0.1h3.3c1,0,1.6,0,2.1-0.1c-0.1,0.7-0.1,1.3-0.1,2.2L138.5,268.2 L138.5,268.2z M132.5,256.7h4.8v-1h-4.8V256.7z M132.5,258.5h4.8v-1h-4.8V258.5z"></path> </g> </g> </svg> 